<?xml version="1.0" encoding="UTF-8" standalone="no"?>
<!-- Created with Inkscape (http://www.inkscape.org/) -->

<svg
   width="101.21094"
   height="75.228516"
   viewBox="0 0 26.778727 19.904211"
   version="1.1"
   id="svg1"
   inkscape:export-filename="grab.svg"
   inkscape:export-xdpi="96"
   inkscape:export-ydpi="96"
   xmlns:inkscape="http://www.inkscape.org/namespaces/inkscape"
   xmlns:sodipodi="http://sodipodi.sourceforge.net/DTD/sodipodi-0.dtd"
   xmlns="http://www.w3.org/2000/svg"
   xmlns:svg="http://www.w3.org/2000/svg">
  <sodipodi:namedview
     id="namedview1"
     pagecolor="#505050"
     bordercolor="#eeeeee"
     borderopacity="1"
     inkscape:showpageshadow="0"
     inkscape:pageopacity="0"
     inkscape:pagecheckerboard="0"
     inkscape:deskcolor="#505050"
     inkscape:document-units="px"
     showguides="true">
    <sodipodi:guide
       position="8.4996554,40.954605"
       orientation="0,-1"
       id="guide1"
       inkscape:locked="false" />
    <sodipodi:guide
       position="10.695107,7.0879393"
       orientation="0,-1"
       id="guide2"
       inkscape:locked="false" />
    <sodipodi:guide
       position="30.322696,16.99281"
       orientation="1,0"
       id="guide3"
       inkscape:locked="false" />
    <sodipodi:guide
       position="-3.5439696,21.446442"
       orientation="1,0"
       id="guide4"
       inkscape:locked="false" />
    <sodipodi:guide
       position="13.389363,18.372808"
       orientation="-1,0"
       id="guide5"
       inkscape:locked="false"
       inkscape:label=""
       inkscape:color="rgb(0,134,229)" />
    <sodipodi:guide
       position="7.0569294,24.021272"
       orientation="0,1"
       id="guide6"
       inkscape:locked="false"
       inkscape:label=""
       inkscape:color="rgb(0,134,229)" />
    <sodipodi:guide
       position="5.6142035,32.487938"
       orientation="0,1"
       id="guide7"
       inkscape:locked="false"
       inkscape:label=""
       inkscape:color="rgb(0,134,229)" />
    <sodipodi:guide
       position="4.7360226,15.554606"
       orientation="0,1"
       id="guide8"
       inkscape:locked="false"
       inkscape:label=""
       inkscape:color="rgb(0,134,229)" />
  </sodipodi:namedview>
  <defs
     id="defs1" />
  <g
     inkscape:label="Layer 1"
     inkscape:groupmode="layer"
     id="layer1"
     transform="translate(-3.5439696,-7.0879393)">
    <path
       id="rect8"
       style="fill:#8e8e8e;fill-opacity:1;stroke-width:0.247;stroke-dasharray:none"
       d="M 4.9867756,7.0879393 A 1.442726,1.441973 0 0 0 3.5439697,8.5302285 1.442726,1.441973 0 0 0 4.9867756,9.9720009 H 28.87989 A 1.442726,1.441973 0 0 0 30.322696,8.5302285 1.442726,1.441973 0 0 0 28.87989,7.0879393 Z m 0,8.5100747 a 1.442726,1.441973 0 0 0 -1.4428059,1.442289 1.442726,1.441973 0 0 0 1.4428059,1.441773 H 28.87989 a 1.442726,1.441973 0 0 0 1.442806,-1.441773 1.442726,1.441973 0 0 0 -1.442806,-1.442289 z m 0,8.510075 A 1.442726,1.441973 0 0 0 3.5439697,25.550378 1.442726,1.441973 0 0 0 4.9867756,26.99215 H 28.87989 a 1.442726,1.441973 0 0 0 1.442806,-1.441772 1.442726,1.441973 0 0 0 -1.442806,-1.442289 z" />
  </g>
</svg>
